<svg width="512" height="512" viewBox="0 0 512 512" xmlns="http://www.w3.org/2000/svg" role="img" aria-labelledby="title desc">
  <title id="title">Baradozig monogram couleur</title>
  <desc id="desc">Monogramme B violet avec silhouette en espace négatif.</desc>
  <defs>
    <linearGradient id="g" x1="80" y1="40" x2="430" y2="470" gradientUnits="userSpaceOnUse">
      <stop offset="0" stop-color="#9B7CFF"/>
      <stop offset="0.48" stop-color="#7954FF"/>
      <stop offset="1" stop-color="#3717C9"/>
    </linearGradient>
    <filter id="soft" x="-20%" y="-20%" width="140%" height="140%">
      <feDropShadow dx="0" dy="10" stdDeviation="14" flood-color="#7954FF" flood-opacity="0.18"/>
    </filter>
    <mask id="personCutout">
      <rect width="512" height="512" fill="white"/>
      <circle cx="185" cy="192" r="43" fill="black"/>
      <path d="M108 310C121 250 158 228 197 240C224 248 239 263 251 286C205 280 169 296 139 337C122 359 106 361 89 346C94 333 100 321 108 310Z" fill="black"/>
    </mask>
  </defs>
  <g filter="url(#soft)" mask="url(#personCutout)">
    <path fill="url(#g)" d="M101 72H234C317 72 371 117 371 188C371 228 352 257 321 273C361 288 386 322 386 369C386 448 326 489 236 489H129C96 489 78 471 78 438V342C78 315 89 298 111 288V288C91 278 78 262 78 235V102C78 84 83 72 101 72Z"/>
    <path fill="url(#g)" d="M172 72H236C297 72 337 107 337 188C337 237 296 265 236 265H162V112C162 88 166 72 172 72Z" opacity="0.98"/>
    <path fill="url(#g)" d="M162 273H250C312 273 352 309 352 374C352 429 311 459 239 459H122C101 459 91 449 91 429V345C91 300 116 273 162 273Z" opacity="0.98"/>
  </g>
</svg>
